<?xml version="1.0" encoding="UTF-8"?><svg id="a" xmlns="http://www.w3.org/2000/svg" width="12.52mm" height="12.09mm" viewBox="0 0 35.48 34.27"><rect x="0" y="0" width="35.48" height="34.27" style="fill:#755541;"/><path d="M6.13,26.42v-2.85h9.88v2.85H6.13Z" style="fill:#fff;"/><path d="M24.09,23.93c-1.56,0-2.82-.25-3.78-.76-.96-.51-1.69-1.12-2.19-1.85-.5-.73-.82-1.44-.96-2.13l3.52-1.15c.16.63.51,1.19,1.03,1.69s1.32.74,2.37.74c.95,0,1.6-.15,1.96-.44.35-.29.53-.61.53-.96,0-.4-.21-.76-.64-1.06-.42-.3-1.28-.51-2.55-.61-1.68-.14-3.03-.59-4.04-1.34-1.01-.75-1.52-1.83-1.52-3.25v-.18c0-.99.27-1.83.82-2.52.55-.69,1.26-1.21,2.13-1.56s1.79-.53,2.76-.53c1.28,0,2.33.2,3.16.59.83.39,1.48.89,1.96,1.47.48.59.81,1.17,1.02,1.76l-3.46,1.4c-.18-.55-.5-.98-.94-1.29-.45-.31-1.02-.47-1.73-.47-.63,0-1.11.12-1.44.35-.33.23-.5.52-.5.87,0,.49.25.83.76,1.03.51.2,1.43.38,2.76.55,1.54.16,2.79.62,3.77,1.38.97.76,1.46,1.82,1.46,3.17v.18c0,1.48-.55,2.67-1.64,3.57-1.09.9-2.63,1.35-4.62,1.35Z" style="fill:#fff;"/></svg>